<svg width="1000" height="400" viewBox="0 0 1000 400" fill="none" xmlns="http://www.w3.org/2000/svg">
<path d="M3.0579e-06 195C3.24555e-06 200.523 4.47716 205 10 205L40 205C45.5229 205 50 200.523 50 195L50 165C50 159.477 54.4772 155 60 155L90 155C95.5228 155 100 150.523 100 145L100 115C100 109.477 95.5228 105 90 105L40 105C17.9086 105 6.08475e-07 122.909 1.35907e-06 145L3.0579e-06 195Z" fill="black"/>
<path d="M130 195C130 189.477 125.523 185 120 185L90 185C84.4771 185 80 189.477 80 195L80 225C80 230.523 75.5228 235 70 235L40 235C34.4772 235 30 239.477 30 245L30 275C30 280.523 34.4772 285 40 285L90 285C112.091 285 130 267.091 130 245L130 195Z" fill="black"/>
<path d="M302.253 277.391C253.714 277.391 226.456 258.262 226.456 220.962V219.527H262.322V223.831C262.322 238.656 269.734 244.633 302.253 244.633C330.946 244.633 337.641 240.329 337.641 229.57C337.641 219.766 332.141 216.18 315.643 213.31L270.691 206.854C241.998 202.311 225.021 187.965 225.021 161.902C225.021 137.752 244.628 112.407 298.427 112.407C347.683 112.407 370.638 135.122 370.638 168.836V170.271H334.532V166.924C334.532 151.621 326.642 145.165 294.841 145.165C269.017 145.165 261.126 150.186 261.126 160.468C261.126 169.793 266.387 173.14 279.777 175.531L324.729 182.705C360.595 188.443 373.507 205.898 373.507 227.896C373.507 253.959 353.183 277.391 302.253 277.391ZM494.277 275H443.108L376.636 114.798H419.914L467.975 238.656H470.366L517.709 114.798H560.748L494.277 275ZM647.522 275H570.29V114.798H647.522C698.93 114.798 731.449 144.687 731.449 194.899C731.449 245.112 698.93 275 647.522 275ZM647.522 147.078H606.156V242.721H647.522C680.041 242.721 693.191 233.395 693.191 194.899C693.191 156.403 680.041 147.078 647.522 147.078ZM782.874 275H747.007V114.798H795.546L833.086 193.704L848.15 231.243H850.78L865.366 193.704L901.71 114.798H950.488V275H914.622V193.704L915.817 168.597H913.187L903.862 193.704L870.387 265.436H826.869L793.394 193.704L784.069 168.597H781.439L782.874 193.704V275Z" fill="black"/>
</svg>
